<svg width="482.008" height="482.008" xmlns="http://www.w3.org/2000/svg" xmlns:svg="http://www.w3.org/2000/svg" x="0px" y="0px"
	 viewBox="0 0 482.008 482.008" style="enable-background:new 0 0 482.008 482.008;" xml:space="preserve">

 <g class="layer">
  <title>Layer 1</title>
  <circle cx="333.008" cy="136" r="108" fill="#FEDCA4" id="svg_9"/>
  <path d="m333.008,252c-63.95999,0 -116,-52.03999 -116,-116s52.04001,-116 116,-116s116,52.04 116,116s-52.04001,116 -116,116zm0,-216c-55.14401,0 -100,44.856 -100,100s44.85599,100 100,100s100,-44.856 100,-100s-44.85599,-100 -100,-100z" fill="#4D4D4D" id="svg_10"/>
  <path id="svg_3" fill="#FDC567" d="m115.42,471.91199c24.48801,-6.56 41.52,-27.056 44.864,-50.672c-14.70399,-18.776 -39.70399,-28.01599 -64.19199,-21.448c-24.48801,6.56 -41.52001,27.056 -44.864,50.672c14.704,18.776 39.696,28.008 64.192,21.448z"/>
  <path id="svg_4" fill="#4D4D4D" d="m192.98801,411.784c-1.144,-4.272 -5.528,-6.81601 -9.8,-5.65601l-20.79999,5.56802c-17.392,-18.54401 -43.50401,-26.32001 -68.37601,-19.64001c-26.904,7.20801 -46.816,29.68799 -50.72,57.272c-0.304,2.16 0.28,4.34399 1.624,6.056c13.368,17.07999 33.576,26.62399 54.56,26.62399c5.98399,0 12.032,-0.776 18,-2.37601c25.368,-6.79999 44.336,-27.23199 49.71199,-52.664l20.12801,-5.392c4.27998,-1.13599 6.81599,-5.52798 5.672,-9.79199zm-79.64001,52.39999c-19.592,5.23199 -40.248,-1.02399 -53.608,-16.008c4.08,-19.65601 18.84,-35.41602 38.424,-40.664c16.184,-4.32001 33.024,-0.70401 45.944,9.08798l-54.752,14.67203c-4.264,1.14398 -6.8,5.52798 -5.65601,9.79999c0.952,3.57599 4.18401,5.92801 7.72,5.92801c0.688,0 1.384,-0.08801 2.08,-0.272l55.79201,-14.944c-6.048,15.71201 -19.20801,27.91202 -35.94401,32.39999z"/>
  <path id="svg_5" fill="#FDC567" d="m329.06799,423.91199c-24.48801,-6.56 -41.51999,-27.056 -44.86401,-50.672c14.70401,-18.776 39.70401,-28.01599 64.19202,-21.448c24.48801,6.56 41.51999,27.056 44.86398,50.672c-14.70398,18.776 -39.69598,28.008 -64.19199,21.448z"/>
  <path id="svg_6" fill="#4D4D4D" d="m350.46799,344.056c-24.86398,-6.67999 -50.97598,1.112 -68.36801,19.64001l-20.80798,-5.57602c-4.23999,-1.14398 -8.65601,1.39999 -9.8,5.65601c-1.144,4.26401 1.392,8.65601 5.65599,9.79999l20.13602,5.392c5.384,25.42401 24.34399,45.86401 49.71201,52.664c5.96799,1.60001 12.008,2.37601 17.99197,2.37601c20.98401,0 41.19202,-9.54401 54.56003,-26.62399c1.34399,-1.71201 1.92798,-3.896 1.62399,-6.056c-3.896,-27.58401 -23.79999,-50.056 -50.70401,-57.272zm-19.31998,72.12799c-16.73599,-4.48801 -29.896,-16.68799 -35.92801,-32.40799l55.784,14.944c0.69601,0.18399 1.392,0.272 2.08002,0.272c3.52798,0 6.76801,-2.36002 7.72,-5.92801c1.14398,-4.26401 -1.392,-8.65601 -5.65601,-9.80002l-54.75201,-14.66397c12.92801,-9.79199 29.784,-13.40799 45.92801,-9.08798c19.57599,5.24799 34.34399,21.008 38.42398,40.66397c-13.35999,14.98401 -34,21.24802 -53.59998,16.008z"/>
  <path id="svg_7" fill="#92C7D3" d="m421.004,205.84c-1.07999,0 -41.224,0 -41.224,0c0.72,-7.888 1.20001,-9.632 1.20801,-14.256c0.12,-41.248 -27.40802,-77.904 -67.69601,-86.784c-22.95999,-5.056 -44.88,-1.624 -63.01599,8.16c-22.12,-32.928 -58.784,-55.296 -100.79201,-57.864c-5.39999,-0.736 -10.87199,-1.256 -16.48,-1.256c-68.48,0 -124,57.248 -124,127.87201c0,36.79999 15.16,69.87999 39.288,93.20801c21.336,23.672 50.96,38.95999 86.04,41.504c0,0 285.58401,1.41599 286.672,1.41599c28.72,0 52,-25.07199 52,-56c0,-30.92799 -23.28,-56 -52,-56z"/>
  <path id="svg_8" fill="#4D4D4D" d="m421.004,325.84c-1.09601,0 -275.048,-1.35999 -286.71201,-1.41599c-36.68,-2.64801 -68.28,-17.896 -91.944,-44.14401c-26.52,-25.632 -41.344,-60.77602 -41.344,-98.56801c0,-74.91999 59.216,-135.87199 131.99999,-135.87199c5.36801,0 10.95201,0.424 17.56801,1.336c40.01601,2.424 77.936,23.08 102.28799,55.6c19.12,-8.552 40.45599,-10.568 62.15201,-5.792c43,9.472 74.12,49.264 73.97598,94.616c-0.008,2.43999 -0.12799,4.15999 -0.336,6.23199l32.35202,0c33.08798,0 60,28.71201 60,64s-26.91199,64.008 -60,64.008zm-286.056,-16c3.576,0 284.07199,0.68802 286.064,0.69601c24.24799,0 43.992,-21.88 43.992,-48.34402s-19.74402,-48.35199 -44,-48.35199l-49.992,0l0.79999,-8.72801c0.26401,-2.92 0.496,-5.01599 0.69601,-6.73599c0.28799,-2.616 0.47998,-4.192 0.48801,-6.81599c0.12,-37.888 -25.71201,-71.088 -61.41602,-78.95201c-20.34399,-4.48 -40.216,-1.92799 -57.496,7.39201l-6.392,3.456l-4.04799,-6.03201c-21.616,-32.17599 -56.112,-51.984 -94.64801,-54.344c-6.48,-0.864 -11.368,-1.24 -15.992,-1.24c-63.95999,0 -115.99999,53.776 -115.99999,119.872c0,33.416 13.088,65.168 36.848,88.15999c21.224,23.504 49.12,39.96802 81.056,39.96802c0.00002,0 0.01601,0 0.04001,0z"/>
  <g id="svg_11"/>
  <g id="svg_12"/>
  <g id="svg_13"/>
  <g id="svg_14"/>
  <g id="svg_15"/>
  <g id="svg_16"/>
  <g id="svg_17"/>
  <g id="svg_18"/>
  <g id="svg_19"/>
  <g id="svg_20"/>
  <g id="svg_21"/>
  <g id="svg_22"/>
  <g id="svg_23"/>
  <g id="svg_24"/>
  <g id="svg_25"/>
 </g>
</svg>