<svg width="480.664" height="480.664" xmlns="http://www.w3.org/2000/svg" viewBox="0 0 483.512 483.512">
  <g class="layer">
    <circle cx="333.008" cy="136" r="108" fill="#FEDCA4"/>
    <path d="M333.008 252c-63.96 0-116-52.04-116-116s52.04-116 116-116 116 52.04 116 116-52.04 116-116 116zm0-216c-55.144 0-100 44.856-100 100s44.856 100 100 100 100-44.856 100-100-44.856-100-100-100z" fill="#4D4D4D"/>
    <circle fill="#E4F1F4" r="24" cy="400.664" cx="80.332"/>
    <path fill="#4D4D4D" d="M80.332 432.664c-17.648 0-32-14.352-32-32s14.352-32 32-32 32 14.352 32 32-14.352 32-32 32zm0-48c-8.824 0-16 7.176-16 16s7.176 16 16 16 16-7.176 16-16-7.176-16-16-16z"/>
    <circle fill="#E4F1F4" r="24" cy="448.664" cx="241.292"/>
    <path fill="#4D4D4D" d="M241.332 480.664c-17.648 0-32-14.352-32-32s14.352-32 32-32 32 14.352 32 32-14.352 32-32 32zm0-48c-8.824 0-16 7.176-16 16s7.176 16 16 16 16-7.176 16-16-7.176-16-16-16z"/>
    <circle fill="#E4F1F4" r="24" cy="400.664" cx="385.292"/>
    <path fill="#4D4D4D" d="M385.332 432.664c-17.648 0-32-14.352-32-32s14.352-32 32-32 32 14.352 32 32-14.352 32-32 32zm0-48c-8.824 0-16 7.176-16 16s7.176 16 16 16 16-7.176 16-16-7.176-16-16-16z"/>
    <path fill="#92C7D3" d="M420.332 228.664h-41.224c.72-7.888 1.2-9.632 1.208-14.256.12-41.248-27.408-77.904-67.696-86.784-22.96-5.056-44.88-1.624-63.016 8.16-22.12-32.928-58.784-55.296-100.792-57.864-5.4-.736-10.872-1.256-16.48-1.256-68.48 0-124 57.248-124 127.872 0 36.8 15.16 69.88 39.288 93.208 21.336 23.672 50.96 38.96 86.04 41.504 0 0 285.584 1.416 286.672 1.416 28.72 0 52-25.072 52-56s-23.28-56-52-56z"/>
    <path fill="#4D4D4D" d="M420.332 348.664c-1.096 0-275.048-1.352-286.712-1.416-36.68-2.648-68.288-17.904-91.944-44.152C15.156 277.472.332 242.328.332 204.536c0-74.92 59.216-135.872 132-135.872 5.368 0 10.952.424 17.568 1.336 40.008 2.424 77.936 23.08 102.288 55.608 19.12-8.56 40.456-10.576 62.152-5.792 43 9.48 74.12 49.272 73.976 94.624-.008 2.44-.128 4.16-.336 6.232h32.352c33.088 0 60 28.712 60 64s-26.912 63.992-60 63.992zm-286.056-16c3.576 0 284.072.696 286.064.696 24.248 0 43.992-21.88 43.992-48.352s-19.744-48.344-44-48.344H370.34l.8-8.728c.264-2.92.496-5.016.696-6.736.288-2.616.48-4.192.488-6.808.12-37.888-25.712-71.096-61.416-78.96-20.36-4.488-40.224-1.928-57.496 7.384l-6.392 3.448-4.048-6.024c-21.616-32.176-56.12-51.984-94.648-54.336-6.48-.864-11.368-1.24-15.992-1.24-63.96 0-116 53.776-116 119.872 0 33.416 13.088 65.168 36.848 88.152 21.224 23.52 49.112 39.976 81.056 39.976h.04z"/>
  </g>
</svg>
