<svg width="480" height="480" xmlns="http://www.w3.org/2000/svg" x="0px" y="0px"
	 viewBox="0 0 480 480" style="enable-background:new 0 0 480 480;" xml:space="preserve">
  <g class="layer">
    <g fill="#4D4D4D">
      <path d="M89.992 476.124c-1.352 0-2.728-.344-3.992-1.072-3.832-2.208-5.136-7.104-2.928-10.928l28-48.496c2.208-3.824 7.096-5.152 10.928-2.928 3.832 2.208 5.136 7.104 2.928 10.928l-28 48.496c-1.48 2.568-4.168 4-6.936 4zM137.992 476.124c-1.352 0-2.728-.344-3.992-1.072-3.832-2.208-5.136-7.104-2.928-10.928l28-48.496c2.208-3.824 7.088-5.152 10.928-2.928 3.832 2.208 5.136 7.104 2.928 10.928l-28 48.496c-1.48 2.568-4.168 4-6.936 4zM185.992 476.124c-1.352 0-2.728-.344-3.992-1.072-3.832-2.208-5.136-7.104-2.928-10.928l28-48.496c2.208-3.824 7.088-5.152 10.928-2.928 3.832 2.208 5.136 7.104 2.928 10.928l-28 48.496c-1.48 2.568-4.168 4-6.936 4zM233.992 476.124c-1.352 0-2.728-.344-3.992-1.072-3.832-2.208-5.136-7.104-2.928-10.928l28-48.496c2.208-3.824 7.096-5.152 10.928-2.928 3.832 2.208 5.136 7.104 2.928 10.928l-28 48.496c-1.48 2.568-4.168 4-6.936 4zM281.992 476.124c-1.352 0-2.728-.344-3.992-1.072-3.832-2.208-5.136-7.104-2.928-10.928l28-48.496c2.208-3.824 7.088-5.152 10.928-2.928 3.832 2.208 5.136 7.104 2.928 10.928l-28 48.496c-1.48 2.568-4.168 4-6.936 4zM329.992 476.124c-1.352 0-2.728-.344-3.992-1.072-3.832-2.208-5.136-7.104-2.928-10.928l28-48.496c2.208-3.824 7.088-5.152 10.928-2.928 3.832 2.208 5.136 7.104 2.928 10.928l-28 48.496c-1.48 2.568-4.168 4-6.936 4zM377.992 476.124c-1.352 0-2.728-.344-3.992-1.072-3.832-2.208-5.136-7.104-2.928-10.928l28-48.496c2.216-3.824 7.096-5.152 10.928-2.928 3.832 2.208 5.136 7.104 2.928 10.928l-28 48.496c-1.48 2.568-4.168 4-6.936 4z"/>
    </g>
    <circle fill="#FEDCA4" r="108" cy="136" cx="333.008"/>
    <path fill="#4D4D4D" d="M333.008 252c-63.96 0-116-52.04-116-116s52.04-116 116-116 116 52.04 116 116-52.04 116-116 116zm0-216c-55.144 0-100 44.856-100 100s44.856 100 100 100 100-44.856 100-100-44.856-100-100-100z"/>
    <path fill="#92C7D3" d="M420 271.876h-41.224c.72-7.888 1.2-9.632 1.208-14.256.12-41.248-27.408-77.904-67.696-86.784-22.96-5.056-44.88-1.624-63.016 8.16-22.12-32.928-58.784-55.296-100.792-57.864-5.4-.736-10.872-1.256-16.48-1.256-68.48 0-124 57.248-124 127.872 0 36.8 15.16 69.88 39.288 93.208 21.336 23.672 50.96 38.96 86.04 41.504 0 0 285.584 1.416 286.672 1.416 28.72 0 52-25.072 52-56s-23.28-56-52-56z"/>
    <path fill="#4D4D4D" d="M420 391.876c-1.096 0-275.048-1.352-286.704-1.416-36.68-2.648-68.288-17.904-91.944-44.152C14.824 320.692 0 285.54 0 247.748c0-74.92 59.216-135.872 132-135.872 5.368 0 10.952.424 17.576 1.336 40.008 2.424 77.936 23.08 102.288 55.608 19.12-8.56 40.456-10.568 62.16-5.792 43 9.48 74.104 49.272 73.976 94.624-.008 2.44-.128 4.16-.336 6.232H420c33.088 0 60 28.712 60 64s-26.912 63.992-60 63.992zm-286.056-16c3.584 0 284.072.696 286.064.696 24.248 0 43.992-21.88 43.992-48.352s-19.736-48.344-44-48.344h-49.984l.792-8.72c.272-2.936.504-5.048.696-6.768.288-2.608.48-4.184.488-6.792.112-37.872-25.72-71.08-61.416-78.944-20.344-4.488-40.232-1.928-57.488 7.384l-6.392 3.448-4.048-6.024c-21.616-32.176-56.12-51.984-94.648-54.336-6.48-.864-11.376-1.24-16-1.24-63.96-.008-116 53.768-116 119.864 0 33.416 13.088 65.176 36.856 88.152 21.216 23.52 49.112 39.976 81.056 39.976h.032z"/>
  </g>
</svg>
