<svg height="512" viewBox="0 0 512 512" width="512" xmlns="http://www.w3.org/2000/svg">
  <g>
   <path id="svg_2" d="m330,317.738007l0,-252.738007c0,-35.841 -29.158997,-65 -65,-65s-65,29.159 -65,65l0,252.738007c-27.074005,20.371002 -43,52.03299 -43,86.261993c0,59.552002 48.447998,108 108,108s108,-48.447998 108,-108c0,-34.227997 -15.929016,-65.890991 -43,-86.261993zm-65,164.261993c-43.01001,0 -78,-34.98999 -78,-78c0,-26.761993 13.485992,-51.355011 36.075989,-65.786987c4.313019,-2.756012 6.924011,-7.521027 6.924011,-12.641022l0,-260.571983c0,-19.298996 15.700989,-34.999998 35,-34.999998s35,15.701002 35,34.999998l0,260.57299c0,5.118988 2.609985,9.88501 6.924988,12.640991c22.588013,14.431 36.075012,39.024017 36.075012,65.786011c0,43.01001 -34.98999,78 -78,78z"/>
   <path id="svg_3" d="m280,361.579987l0,-296.579987c0,-8.284 -6.716003,-15 -15,-15s-15,6.716 -15,15l0,296.579987c-17.459,6.192017 -30,22.86499 -30,42.419983c0,24.813019 20.186996,45 45,45s45,-20.186981 45,-45c0,-19.554993 -12.541992,-36.227997 -30,-42.419983zm-15,57.419983c-8.270996,0 -15,-6.729004 -15,-15s6.729004,-15 15,-15s15,6.729004 15,15s-6.729004,15 -15,15z"/>
  </g>
</svg>